<?xml version="1.0" encoding="UTF-8" standalone="no"?>
<!-- Generator: Adobe Illustrator 16.0.0, SVG Export Plug-In . SVG Version: 6.00 Build 0)  -->

<svg
   xmlns:dc="http://purl.org/dc/elements/1.1/"
   xmlns:cc="http://creativecommons.org/ns#"
   xmlns:rdf="http://www.w3.org/1999/02/22-rdf-syntax-ns#"
   xmlns:svg="http://www.w3.org/2000/svg"
   xmlns="http://www.w3.org/2000/svg"
   xmlns:sodipodi="http://sodipodi.sourceforge.net/DTD/sodipodi-0.dtd"
   xmlns:inkscape="http://www.inkscape.org/namespaces/inkscape"
   version="1.1"
   id="Layer_2"
   x="0px"
   y="0px"
   width="51.335999"
   height="51.335999"
   viewBox="0 0 51.335998 51.335999"
   enable-background="new 0 0 280 55"
   xml:space="preserve"
   inkscape:version="0.91 r13725"
   sodipodi:docname="logo-oa.svg"
   inkscape:export-filename="/home/nschloe/rcs/paperhive/paperhive-artwork/ph-hexagon.png"
   inkscape:export-xdpi="1123.37"
   inkscape:export-ydpi="1123.37"><metadata
     id="metadata87"><rdf:RDF><cc:Work
         rdf:about=""><dc:format>image/svg+xml</dc:format><dc:type
           rdf:resource="http://purl.org/dc/dcmitype/StillImage" /><dc:title></dc:title><dc:title /></cc:Work></rdf:RDF></metadata><defs
     id="defs85" /><sodipodi:namedview
     pagecolor="#ffffff"
     bordercolor="#666666"
     borderopacity="1"
     objecttolerance="10"
     gridtolerance="10"
     guidetolerance="10"
     inkscape:pageopacity="0"
     inkscape:pageshadow="2"
     inkscape:window-width="1280"
     inkscape:window-height="741"
     id="namedview83"
     showgrid="false"
     showguides="false"
     fit-margin-top="0"
     fit-margin-left="0"
     fit-margin-right="0"
     fit-margin-bottom="0"
     inkscape:zoom="2.8284272"
     inkscape:cx="12.609394"
     inkscape:cy="30.661443"
     inkscape:window-x="0"
     inkscape:window-y="27"
     inkscape:window-maximized="1"
     inkscape:current-layer="Layer_2" /><g
     id="g3"
     transform="translate(-128.237,-1.831997)"><g
       id="g5"><polygon
         points="131.676,40.334 153.905,53.168 176.134,40.334 176.134,40.334 173.966,39.082 153.904,50.664 133.845,39.082 "
         id="polygon7"
         style="fill:#00addc" /></g><g
       id="g9"><polygon
         points="131.676,36.668 153.904,49.502 176.134,36.668 176.134,36.668 173.966,35.414 153.906,46.998 133.845,35.414 "
         id="polygon11"
         style="fill:#00b9e1" /></g><g
       id="g13"><polygon
         points="131.676,33 153.906,45.834 176.134,33 176.134,33 173.966,31.748 153.905,43.332 133.845,31.748 "
         id="polygon15"
         style="fill:#00c4e6" /></g><g
       id="g17"><polygon
         points="131.676,29.334 153.905,42.168 176.134,29.334 176.134,29.334 173.966,28.082 153.905,39.664 133.845,28.082 "
         id="polygon19"
         style="fill:#00d0eb" /></g><g
       id="g21"><polygon
         points="173.966,24.414 153.906,35.998 133.845,24.414 131.676,25.666 153.905,38.502 176.134,25.666 "
         id="polygon23"
         style="fill:#00dcf0" /></g><g
       id="g25"><polygon
         points="133.845,20.748 131.676,22 153.906,34.834 176.134,22 176.134,22 173.967,20.748 153.905,32.33 "
         id="polygon27"
         style="fill:#00e8f5" /></g><g
       id="g29"><polygon
         points="173.966,17.081 153.905,28.664 133.845,17.081 131.676,18.333 153.905,31.168 176.134,18.333 "
         id="polygon31"
         style="fill:#00f3fa" /></g><g
       id="g33"><polygon
         points="131.676,14.666 153.905,1.832 176.134,14.666 176.134,14.666 153.905,27.5 "
         id="polygon35"
         style="fill:#00ffff" /></g><g
       id="g37"><g
         id="g49" /></g><g
       id="g55"><g
         id="g57" /><g
         id="g61" /><g
         id="g67" /><g
         id="g71" /><g
         id="g77" /></g></g><rect
     y="18.150455"
     x="82.749512"
     style="fill:#ffffff"
     width="25.6"
     height="40"
     id="rect4161"
     inkscape:transform-center-x="-184"
     inkscape:transform-center-y="670" /><g
     style="fill:none;stroke:#f68212;stroke-width:104.76399994"
     id="g4163"
     transform="matrix(0.05254964,0,0,0.05254964,8.7929413,-0.62440079)"
     inkscape:transform-center-x="-241.72854"
     inkscape:transform-center-y="880.20654"><path
       inkscape:connector-curvature="0"
       d="m 111.387,308.135 0,-35.727 a 209.21,209.214 0 0 1 418.42,0 l 0,258.426"
       id="path4165" /><circle
       cx="320.004"
       cy="680.729"
       r="256.08301"
       id="circle4167" /></g><circle
     style="fill:#f68212"
     cx="25.661903"
     cy="35.196522"
     r="4.5417972"
     id="circle4169"
     inkscape:transform-center-x="-241.78141"
     inkscape:transform-center-y="889.75251" /></svg>