<?xml version="1.0" encoding="utf-8"?>
<!-- Generator: Adobe Illustrator 16.0.0, SVG Export Plug-In . SVG Version: 6.00 Build 0)  -->
<!DOCTYPE svg PUBLIC "-//W3C//DTD SVG 1.1//EN" "http://www.w3.org/Graphics/SVG/1.1/DTD/svg11.dtd">
<svg version="1.1" id="Layer_2" xmlns="http://www.w3.org/2000/svg" xmlns:xlink="http://www.w3.org/1999/xlink" x="0px" y="0px"
	 width="280px" height="55px" viewBox="0 0 280 55" enable-background="new 0 0 280 55" xml:space="preserve">
<g>
	<g>
		<polygon fill="#00ADDC" points="133.845,39.082 131.676,40.334 153.905,53.168 176.134,40.334 176.134,40.334 173.966,39.082 
			153.904,50.664 		"/>
	</g>
	<g>
		<polygon fill="#00B9E1" points="133.845,35.414 131.676,36.668 153.904,49.502 176.134,36.668 176.134,36.668 173.966,35.414 
			153.906,46.998 		"/>
	</g>
	<g>
		<polygon fill="#00C4E6" points="133.845,31.748 131.676,33 153.906,45.834 176.134,33 176.134,33 173.966,31.748 153.905,43.332 
					"/>
	</g>
	<g>
		<polygon fill="#00D0EB" points="133.845,28.082 131.676,29.334 153.905,42.168 176.134,29.334 176.134,29.334 173.966,28.082 
			153.905,39.664 		"/>
	</g>
	<g>
		<polygon fill="#00DCF0" points="133.845,24.414 131.676,25.666 153.905,38.502 176.134,25.666 173.966,24.414 153.906,35.998 		
			"/>
	</g>
	<g>
		<polygon fill="#00E8F5" points="153.905,32.33 133.845,20.748 131.676,22 153.906,34.834 176.134,22 176.134,22 173.967,20.748 		
			"/>
	</g>
	<g>
		<polygon fill="#00F3FA" points="133.845,17.081 131.676,18.333 153.905,31.168 176.134,18.333 173.966,17.081 153.905,28.664 		
			"/>
	</g>
	<g>
		<polygon fill="#00FFFF" points="176.134,14.666 153.905,27.5 131.676,14.666 153.905,1.832 176.134,14.666 		"/>
	</g>
	<g>
		
			<line fill="none" stroke="#29ABE2" stroke-width="1.5" stroke-linecap="round" stroke-miterlimit="10" x1="187.82" y1="14.665" x2="187.82" y2="40.334"/>
		
			<line fill="none" stroke="#29ABE2" stroke-width="1.5" stroke-linecap="round" stroke-miterlimit="10" x1="206.229" y1="14.665" x2="206.229" y2="40.334"/>
		
			<line fill="none" stroke="#29ABE2" stroke-width="1.5" stroke-linecap="round" stroke-miterlimit="10" x1="217.997" y1="14.665" x2="217.997" y2="40.334"/>
		
			<line fill="none" stroke="#29ABE2" stroke-width="1.5" stroke-linecap="round" stroke-miterlimit="10" x1="206.229" y1="27.5" x2="187.82" y2="27.5"/>
		
			<polyline fill="none" stroke="#29ABE2" stroke-width="1.5" stroke-linecap="round" stroke-linejoin="round" stroke-miterlimit="10" points="
			249.379,14.665 238.236,40.334 227.092,14.665 		"/>
		<g>
			<polyline fill="none" stroke="#29ABE2" stroke-width="1.5" stroke-linecap="round" stroke-miterlimit="10" points="272,14.665 
				256.562,14.665 256.562,40.334 272,40.334 			"/>
			
				<line fill="none" stroke="#29ABE2" stroke-width="1.5" stroke-linecap="round" stroke-miterlimit="10" x1="256.562" y1="27.5" x2="268.546" y2="27.5"/>
		</g>
	</g>
	<g>
		<g>
			<path fill="none" stroke="#29ABE2" stroke-width="1.5" stroke-linecap="round" stroke-miterlimit="10" d="M8,29.859h7.98
				c4.196,0,7.598-3.402,7.598-7.598c0-4.194-3.401-7.597-7.598-7.597H8v25.669"/>
		</g>
		<g>
			
				<line fill="none" stroke="#29ABE2" stroke-width="1.5" stroke-linecap="round" stroke-miterlimit="10" x1="44.173" y1="32.312" x2="29.145" y2="32.312"/>
			
				<polyline fill="none" stroke="#29ABE2" stroke-width="1.5" stroke-linecap="round" stroke-linejoin="round" stroke-miterlimit="10" points="
				25.662,40.334 36.806,14.665 47.949,40.334 			"/>
		</g>
		<g>
			<path fill="none" stroke="#29ABE2" stroke-width="1.5" stroke-linecap="round" stroke-miterlimit="10" d="M56.589,29.859h7.981
				c4.196,0,7.598-3.402,7.598-7.598c0-4.194-3.401-7.597-7.598-7.597h-7.981v25.669"/>
		</g>
		<g>
			<polyline fill="none" stroke="#29ABE2" stroke-width="1.5" stroke-linecap="round" stroke-miterlimit="10" points="
				95.968,14.665 80.53,14.665 80.53,40.334 95.968,40.334 			"/>
			
				<line fill="none" stroke="#29ABE2" stroke-width="1.5" stroke-linecap="round" stroke-miterlimit="10" x1="80.53" y1="27.5" x2="92.514" y2="27.5"/>
		</g>
		<g>
			<path fill="none" stroke="#29ABE2" stroke-width="1.5" stroke-linecap="round" stroke-miterlimit="10" d="M104.848,29.859h7.981
				c4.196,0,7.598-3.402,7.598-7.598c0-4.194-3.401-7.597-7.598-7.597h-7.981v25.669"/>
			
				<line fill="none" stroke="#29ABE2" stroke-width="1.5" stroke-linecap="round" stroke-miterlimit="10" x1="119.989" y1="40.334" x2="112.829" y2="29.859"/>
		</g>
	</g>
</g>
</svg>
